<?xml version="1.0" encoding="UTF-8" standalone="no"?>
<!DOCTYPE svg PUBLIC "-//W3C//DTD SVG 1.1//EN" "http://www.w3.org/Graphics/SVG/1.1/DTD/svg11.dtd">
<!-- Created with Vectornator (http://vectornator.io/) -->
<svg height="100%" stroke-miterlimit="10" style="fill-rule:nonzero;clip-rule:evenodd;stroke-linecap:round;stroke-linejoin:round;" version="1.1" viewBox="0 0 420.2 492.874" width="100%" xml:space="preserve" xmlns="http://www.w3.org/2000/svg" xmlns:vectornator="http://vectornator.io" xmlns:xlink="http://www.w3.org/1999/xlink">
<defs/>
<clipPath id="ArtboardFrame">
<rect height="492.874" width="420.2" x="0" y="0"/>
</clipPath>
<g clip-path="url(#ArtboardFrame)" id="Untitled" vectornator:layerName="Untitled">
<g opacity="1">
<path d="M2.8022 403.518C1.1422 405.002 0.1382 407.084 0.0132003 409.311C-0.1118 411.534 0.6542 413.717 2.1382 415.381C5.2322 418.838 10.5442 419.135 14.0012 416.041L67.9972 367.76C78.4152 358.378 91.2392 352.08 105.032 349.569C118.825 347.062 133.044 348.441 146.098 353.554C154.434 357.964 163.723 360.269 173.153 360.273L247.688 360.273C254.262 360.386 260.29 363.96 263.543 369.675C266.801 375.386 266.801 382.394 263.543 388.109C260.289 393.82 254.262 397.394 247.688 397.507L160.637 397.507C155.996 397.507 152.238 401.269 152.238 405.91C152.238 410.546 155.996 414.308 160.637 414.308L247.688 414.308C260.235 414.152 271.762 407.367 277.993 396.472C284.22 385.577 284.22 372.202 277.993 361.308C271.762 350.417 260.235 343.632 247.688 343.472L173.141 343.472C166.328 343.468 159.621 341.765 153.633 338.519C153.332 338.355 153.024 338.21 152.707 338.085C136.711 331.706 119.254 329.929 102.301 332.956C85.3482 335.984 69.5822 343.694 56.7852 355.218L2.8022 403.518Z" fill="#4bbb8f" fill-rule="nonzero" opacity="1" stroke="none"/>
<path d="M264.952 452.478L402.692 376.88C413.258 371.079 419.93 360.079 420.192 348.025C420.45 335.97 414.262 324.693 403.95 318.439C393.641 312.185 380.778 311.908 370.212 317.709L302.267 355.002C300.29 356.06 298.818 357.865 298.181 360.013C297.544 362.166 297.79 364.478 298.869 366.443C299.951 368.412 301.767 369.865 303.923 370.478C306.08 371.095 308.392 370.826 310.345 369.728L378.306 332.451L378.31 332.451C382.255 330.225 386.923 329.674 391.279 330.916C395.635 332.158 399.31 335.092 401.486 339.064C403.666 343.033 404.162 347.709 402.869 352.048C401.576 356.388 398.599 360.033 394.603 362.161L256.873 437.723C243.432 445.083 228.357 448.946 213.037 448.957L102.587 448.957C94.4512 448.969 86.5402 451.633 80.0522 456.543L52.1972 477.707C50.3852 479.039 49.1862 481.043 48.8612 483.27C48.5412 485.496 49.1272 487.762 50.4862 489.551C51.8462 491.344 53.8692 492.516 56.1002 492.805C58.3342 493.094 60.5882 492.473 62.3582 491.086L90.2252 469.918L90.2212 469.918C93.7832 467.227 98.1232 465.766 102.588 465.758L213.018 465.758L213.014 465.758C231.166 465.754 249.026 461.188 264.952 452.477L264.952 452.478Z" fill="#4bbb8f" fill-rule="nonzero" opacity="1" stroke="none"/>
<path d="M238.252 0L189.205 0C184.568 0 180.807 3.7578 180.807 8.3984L180.807 48.7964L137.061 48.7964C132.42 48.7964 128.658 52.5581 128.658 57.1948L128.658 84.136C128.658 88.776 132.42 92.538 137.061 92.538C141.697 92.538 145.459 88.776 145.459 84.136L145.459 65.5968L199.459 65.5968L199.459 84.14L199.459 84.136C199.459 88.776 203.221 92.538 207.861 92.538C212.498 92.538 216.26 88.776 216.26 84.136L216.26 57.1949C216.26 52.5582 212.498 48.7965 207.861 48.7965L197.607 48.7965L197.607 16.7965L229.853 16.7965L229.853 40.3165L229.849 40.3204C229.849 44.9571 233.611 48.7188 238.252 48.7188C242.888 48.7188 246.65 44.9571 246.65 40.3204L246.65 8.3984C246.65 3.7578 242.888-4.34276e-06 238.252 0Z" fill="#4bbb8f" fill-rule="nonzero" opacity="1" stroke="none"/>
<path d="M292.122 87.918C290.778 89.715 290.208 91.977 290.544 94.191C290.876 96.41 292.083 98.406 293.892 99.727C295.704 101.051 297.97 101.598 300.185 101.238C302.399 100.883 304.38 99.656 305.685 97.832L334.244 58.7111L334.244 58.7072C339.783 51.1916 342.044 41.7502 340.509 32.5392C338.974 23.2111 333.72 14.9062 325.95 9.5192C318.27 4.1989 308.852 2.0114 299.614 3.402C290.376 4.7887 282.016 9.6559 276.243 17L226.677 81.758C223.884 85.442 224.591 90.692 228.259 93.504C231.931 96.316 237.181 95.633 240.013 91.977L252.333 75.899L272.493 79.821C273.021 79.922 273.56 79.977 274.099 79.977C278.431 79.977 282.048 76.684 282.458 72.375C282.868 68.063 279.935 64.1486 275.685 63.3283L263.751 61.0197L273.771 47.9457L293.716 51.7973C294.247 51.9028 294.782 51.9575 295.325 51.9575C299.716 52.0356 303.427 48.7192 303.841 44.3481C304.255 39.977 301.231 36.0239 296.903 35.2778L285.176 33.0395L289.61 27.2504L289.61 27.2465C292.723 23.309 297.219 20.7074 302.184 19.9692C307.153 19.2348 312.211 20.4262 316.329 23.2934C320.387 26.0942 323.137 30.4184 323.958 35.2774C324.747 40.0391 323.575 44.918 320.704 48.7974L292.122 87.918Z" fill="#4bbb8f" fill-rule="nonzero" opacity="1" stroke="none"/>
<path d="M116.022 107.548C113.479 109.064 111.924 111.806 111.928 114.767L111.928 303.857C111.928 308.497 115.686 312.259 120.327 312.259L313.287 312.259C317.923 312.259 321.685 308.497 321.685 303.857L321.685 114.767C321.689 111.763 320.087 108.986 317.486 107.482C314.884 105.982 311.681 105.982 309.08 107.486L292.373 117.154L278.076 107.751L278.076 107.747C275.275 105.907 271.646 105.907 268.841 107.747L254.841 116.966L240.841 107.747C238.044 105.911 234.419 105.911 231.619 107.747L217.557 116.97L203.557 107.751L203.56 107.755C200.76 105.915 197.131 105.915 194.33 107.755L180.33 116.974L166.33 107.755C163.529 105.915 159.9 105.915 157.099 107.755L142.658 117.275L124.412 107.411C121.791 105.954 118.592 106.009 116.022 107.548ZM128.729 128.857L138.979 134.4C141.702 135.873 145.01 135.728 147.592 134.029L161.592 124.806L175.592 134.029C178.393 135.873 182.022 135.873 184.823 134.029L198.901 124.818L212.901 134.041C215.698 135.881 219.323 135.881 222.123 134.041L236.185 124.818L250.185 134.041C252.986 135.885 256.615 135.885 259.42 134.041L273.42 124.818L287.42 134.041C290.076 135.791 293.49 135.888 296.244 134.295L304.83 129.326L304.83 295.466L128.72 295.466L128.729 128.857Z" fill="#4bbb8f" fill-rule="nonzero" opacity="1" stroke="none"/>
</g>
</g>
</svg>
