<?xml version="1.0" encoding="UTF-8" standalone="no"?>
<!DOCTYPE svg PUBLIC "-//W3C//DTD SVG 1.1//EN" "http://www.w3.org/Graphics/SVG/1.1/DTD/svg11.dtd">
<!-- Created with Vectornator (http://vectornator.io/) -->
<svg height="100%" stroke-miterlimit="10" style="fill-rule:nonzero;clip-rule:evenodd;stroke-linecap:round;stroke-linejoin:round;" version="1.1" viewBox="0 0 59.781 60" width="100%" xml:space="preserve" xmlns="http://www.w3.org/2000/svg" xmlns:vectornator="http://vectornator.io" xmlns:xlink="http://www.w3.org/1999/xlink">
<defs/>
<clipPath id="ArtboardFrame">
<rect height="60" width="59.781" x="0" y="0"/>
</clipPath>
<g clip-path="url(#ArtboardFrame)" id="Untitled" vectornator:layerName="Untitled">
<path d="M59.666 24.36L53.685 9.26C53.3839 8.4995 52.6489 8 51.831 8L45.412 8C44.4603 3.35684 40.3827 0.0175836 35.643 5.10303e-08L23.682 5.10303e-08C18.94 0.0110317 14.8587 3.35325 13.913 8L7.973 8C7.15498 7.99972 6.41986 8.49932 6.119 9.26L0.138 24.36C-0.107089 24.9754-0.0315863 25.6722 0.339627 26.2208C0.710841 26.7694 1.3296 27.0987 1.992 27.1C2.769 27.1 3.108 27.42 3.985 28.4C4.29633 28.7735 4.63029 29.1275 4.985 29.46L4.985 58C4.985 59.1022 5.87678 59.9967 6.979 60L14.953 60C16.0552 59.9967 16.947 59.1022 16.947 58L16.947 41.68L20.934 41.68L20.934 58C20.934 59.1018 21.8252 59.9961 22.927 60L52.827 60C53.9288 59.9961 54.82 59.1018 54.82 58L54.82 29.46C55.199 29.1 55.52 28.74 55.82 28.4C56.697 27.42 57.036 27.1 57.814 27.1C58.4755 27.0925 59.0922 26.7644 59.468 26.22C59.8279 25.6674 59.9015 24.976 59.666 24.36ZM23.682 4L35.643 4C38.1745 4.00966 40.426 5.61154 41.265 8L18.065 8C18.8936 5.60588 21.1486 4.00005 23.682 4ZM50.834 56L24.918 56L24.918 39.68C24.918 38.5778 24.0262 37.6833 22.924 37.68L14.95 37.68C13.8482 37.6839 12.957 38.5782 12.957 39.68L12.957 56L8.969 56L8.969 31.1C10.9643 31.0404 12.8132 30.0388 13.953 28.4C14.83 27.42 15.169 27.1 15.947 27.1C16.704 27.1 17.063 27.42 17.921 28.4C19.0191 30.0844 20.8938 31.1001 22.9045 31.1001C24.9152 31.1001 26.7899 30.0844 27.888 28.4C28.766 27.42 29.104 27.1 29.882 27.1C30.66 27.1 30.998 27.42 31.876 28.4C32.9741 30.0844 34.8488 31.1001 36.8595 31.1001C38.8702 31.1001 40.7449 30.0844 41.843 28.4C42.721 27.42 43.059 27.1 43.837 27.1C44.615 27.1 44.953 27.42 45.83 28.4C46.83 29.54 48.163 31.1 50.814 31.1L50.834 31.1C50.834 31.1 50.834 56 50.834 56ZM52.828 25.78C51.951 26.76 51.592 27.1 50.814 27.1C50.036 27.1 49.698 26.76 48.821 25.78C47.715 24.1065 45.843 23.0997 43.837 23.0997C41.831 23.0997 39.959 24.1065 38.853 25.78C37.976 26.76 37.637 27.1 36.859 27.1C36.081 27.1 35.743 26.76 34.866 25.78C33.76 24.1065 31.888 23.0997 29.882 23.0997C27.876 23.0997 26.004 24.1065 24.898 25.78C24.021 26.76 23.682 27.1 22.904 27.1C22.126 27.1 21.788 26.76 20.931 25.78C19.825 24.1065 17.953 23.0997 15.947 23.0997C13.941 23.0997 12.069 24.1065 10.963 25.78C10.086 26.76 9.747 27.1 8.969 27.1C8.191 27.1 7.853 26.76 6.976 25.78C6.34527 24.9612 5.55928 24.2747 4.663 23.76L9.328 12L50.475 12L55.14 23.74C54.2458 24.2657 53.4609 24.9582 52.828 25.78ZM44.854 52.007L30.899 52.007C29.7968 52.0037 28.905 51.1092 28.905 50.007L28.905 37.257C28.905 36.1548 29.7968 35.2603 30.899 35.257L44.854 35.257C45.9558 35.2609 46.847 36.1552 46.847 37.257L46.847 50.007C46.847 51.1088 45.9558 52.0031 44.854 52.007ZM32.892 48.007L42.86 48.007L42.86 39.257L32.892 39.257L32.892 48.007Z" fill="#4bbb8f" fill-rule="evenodd" opacity="1" stroke="none"/>
</g>
</svg>
